<svg aria-hidden="true" style="position: absolute; width: 0; height: 0; overflow: hidden;" version="1.1" xmlns="http://www.w3.org/2000/svg" xmlns:xlink="http://www.w3.org/1999/xlink">
<defs>
<symbol id="icon-brand" viewBox="0 0 32 32">
<title>brand</title>
<path d="M31.976 10.886c-0.008-0.040-0.014-0.080-0.024-0.116l-0.020-0.066c-0.012-0.034-0.024-0.068-0.040-0.1-0.006-0.024-0.020-0.046-0.028-0.068l-0.046-0.090-0.040-0.064-0.060-0.080-0.060-0.060-0.080-0.060-0.060-0.040-0.080-0.060-0.060-0.040-0.020-0.020-14.598-9.782c-0.46-0.308-1.060-0.308-1.52 0l-14.796 9.87-0.050 0.054-0.068 0.074-0.048 0.060-0.060 0.080c-0.020 0.020-0.040 0.040-0.040 0.060l-0.060 0.080-0.020 0.080c-0.020 0.020-0.020 0.060-0.040 0.1l-0.020 0.060c-0.020 0.040-0.020 0.080-0.020 0.12v0.060c-0.018 0.062-0.018 0.122-0.018 0.182v9.75c0 0.060 0.004 0.12 0.012 0.18l0.014 0.060c0.006 0.040 0.012 0.080 0.026 0.116l0.020 0.066c0.012 0.036 0.020 0.070 0.036 0.1l0.030 0.066c0 0.020 0.020 0.060 0.040 0.080l0.040 0.060c0.020 0.020 0.040 0.060 0.060 0.080l0.040 0.060 0.060 0.060c0.020 0.020 0.020 0.040 0.040 0.040l0.080 0.060 0.060 0.040 0.020 0.020 14.62 9.76c0.22 0.16 0.5 0.22 0.76 0.22s0.52-0.080 0.76-0.24l14.802-9.822 0.060-0.052 0.070-0.074 0.048-0.060 0.060-0.080 0.040-0.064 0.040-0.092 0.020-0.072 0.040-0.1 0.020-0.060 0.040-0.1v-10c0-0.060 0-0.12-0.020-0.18l-0.020-0.060zM16 19.252l-4.864-3.252 4.864-3.252 4.864 3.252-4.864 3.252zM14.624 10.36l-5.96 3.986-4.812-3.22 10.772-7.18v6.414zM6.19 16l-3.44 2.3v-4.6l3.44 2.3zM8.664 17.656l5.96 3.986v6.42l-10.772-7.18 4.812-3.22zM17.374 21.642l5.96-3.98 4.814 3.22-10.774 7.18v-6.4zM25.81 16l3.44-2.3v4.6l-3.44-2.3zM23.336 14.346l-5.96-3.986v-6.42l10.772 7.18-4.812 3.22z"></path>
</symbol>
<symbol id="icon-brand2" viewBox="0 0 32 32">
<title>brand2</title>
<path d="M16 0c-8.84 0-16 7.164-16 16 0 7.070 4.584 13.066 10.94 15.18 0.8 0.15 1.094-0.344 1.094-0.77 0-0.38-0.014-1.386-0.020-2.72-4.452 0.966-5.39-2.146-5.39-2.146-0.728-1.848-1.78-2.34-1.78-2.34-1.45-0.992 0.112-0.972 0.112-0.972 1.606 0.112 2.45 1.648 2.45 1.648 1.428 2.446 3.746 1.74 4.66 1.33 0.144-1.034 0.556-1.74 1.014-2.14-3.554-0.4-7.288-1.776-7.288-7.906 0-1.746 0.62-3.174 1.646-4.294-0.18-0.404-0.72-2.030 0.14-4.234 0 0 1.34-0.43 4.4 1.64 1.28-0.356 2.64-0.532 4-0.54 1.36 0.008 2.72 0.184 4 0.54 3.040-2.070 4.38-1.64 4.38-1.64 0.86 2.204 0.32 3.83 0.16 4.234 1.020 1.12 1.64 2.548 1.64 4.294 0 6.146-3.74 7.5-7.3 7.894 0.56 0.48 1.080 1.46 1.080 2.96 0 2.14-0.020 3.86-0.020 4.38 0 0.42 0.28 0.92 1.1 0.76 6.402-2.098 10.982-8.098 10.982-15.158 0-8.836-7.164-16-16-16z"></path>
</symbol>
<symbol id="icon-brand3" viewBox="0 0 32 32">
<title>brand3</title>
<path fill="#0077b5" style="fill: var(--color1, #0077b5)" d="M27.264 27.27h-4.74v-7.426c0-1.772-0.036-4.050-2.468-4.050-2.47 0-2.848 1.928-2.848 3.92v7.556h-4.74v-15.27h4.552v2.080h0.060c0.636-1.2 2.184-2.466 4.494-2.466 4.8 0 5.69 3.16 5.69 7.274v8.376zM7.116 9.91c-1.524 0-2.752-1.234-2.752-2.754 0-1.516 1.228-2.75 2.752-2.75 1.52 0 2.752 1.234 2.752 2.75 0 1.52-1.234 2.754-2.752 2.754zM9.492 27.27h-4.752v-15.27h4.752v15.27zM29.632 0h-27.272c-1.304 0-2.36 1.032-2.36 2.306v27.388c0 1.274 1.056 2.306 2.36 2.306h27.27c1.304 0 2.37-1.032 2.37-2.306v-27.388c0-1.274-1.066-2.306-2.37-2.306z"></path>
</symbol>
<symbol id="icon-brand4" viewBox="0 0 32 32">
<title>brand4</title>
<path fill="#1da1f2" style="fill: var(--color2, #1da1f2)" d="M32 6.076c-1.18 0.52-2.44 0.874-3.77 1.034 1.354-0.814 2.396-2.1 2.886-3.632-1.268 0.74-2.674 1.28-4.17 1.58-1.196-1.28-2.9-2.080-4.792-2.080-3.624 0-6.564 2.94-6.564 6.56 0 0.52 0.060 1.020 0.17 1.5-5.456-0.26-10.294-2.88-13.532-6.84-0.568 0.962-0.888 2.082-0.888 3.302 0 2.28 1.16 4.286 2.92 5.464-1.076-0.034-2.090-0.33-2.974-0.82v0.080c0 3.18 2.26 5.836 5.266 6.44-0.552 0.148-1.132 0.228-1.73 0.228-0.42 0-0.82-0.040-1.22-0.116 0.84 2.608 3.26 4.506 6.14 4.56-2.24 1.76-5.080 2.808-8.14 2.808-0.52 0-1.040-0.030-1.56-0.090 2.92 1.86 6.36 2.948 10.080 2.948 12.080 0 18.68-10 18.68-18.66 0-0.28 0-0.56-0.020-0.84 1.28-0.92 2.4-2.080 3.28-3.4z"></path>
</symbol>
</defs>
</svg>
